<?xml version="1.0" encoding="UTF-8"?>
<svg id="Layer_2" data-name="Layer 2" xmlns="http://www.w3.org/2000/svg" viewBox="0 0 492.42 469.86">
  <defs>
    <style>
      .cls-1, .cls-2 {
        fill: #fff;
      }

      .cls-2 {
        font-family: MVBoli, 'MV Boli';
        font-size: 50px;
      }
    </style>
  </defs>
  <g id="Layer_1-2" data-name="Layer 1">
    <g>
      <path class="cls-1" d="M155.26,0C69.51,0,0,69.51,0,155.26s69.51,155.26,155.26,155.26,155.26-69.51,155.26-155.26S241.01,0,155.26,0Zm34.96,270.24c-63.5,19.3-130.63-16.52-149.94-80.02C20.98,126.72,56.8,59.59,120.3,40.28c63.5-19.31,130.63,16.52,149.94,80.02,19.31,63.5-16.52,130.63-80.02,149.94Z"/>
      <rect class="cls-1" x=".05" y="151.46" width="35.01" height="303.51"/>
      <path class="cls-1" d="M222.18,190.22c-16.58-54.54,7.51-111.76,54.88-139.06l-17.54-30.38c-46.4,26.84-77.62,77.01-77.62,134.48s31.22,107.64,77.62,134.48l17.55-30.41c-25.48-14.7-45.65-38.74-54.89-69.11ZM414.8,20.78l-17.55,30.41c25.48,14.7,45.65,38.74,54.89,69.11,16.59,54.54-7.51,111.76-54.88,139.06l17.54,30.38c46.4-26.84,77.62-77.01,77.62-134.48s-31.22-107.64-77.62-134.48Z"/>
      <rect class="cls-1" x="316.26" y="6.63" width="35.01" height="297.27" transform="translate(489.03 -178.51) rotate(90)"/>
      <text class="cls-2" transform="translate(256.01 454.97)"><tspan x="0" y="0">Consulting</tspan></text>
    </g>
  </g>
</svg>